<?xml version="1.0" encoding="UTF-8" standalone="no"?>
<!-- Created with Inkscape (http://www.inkscape.org/) -->

<svg
   width="210mm"
   height="297mm"
   viewBox="0 0 210 297"
   version="1.1"
   id="svg5"
   inkscape:version="1.1.1 (3bf5ae0d25, 2021-09-20)"
   sodipodi:docname="useless 2.svg"
   xmlns:inkscape="http://www.inkscape.org/namespaces/inkscape"
   xmlns:sodipodi="http://sodipodi.sourceforge.net/DTD/sodipodi-0.dtd"
   xmlns="http://www.w3.org/2000/svg"
   xmlns:svg="http://www.w3.org/2000/svg">
  <sodipodi:namedview
     id="namedview7"
     pagecolor="#505050"
     bordercolor="#eeeeee"
     borderopacity="1"
     inkscape:pageshadow="0"
     inkscape:pageopacity="0"
     inkscape:pagecheckerboard="0"
     inkscape:document-units="mm"
     showgrid="false"
     inkscape:zoom="0.76791526"
     inkscape:cx="139.9894"
     inkscape:cy="353.55463"
     inkscape:window-width="1920"
     inkscape:window-height="1051"
     inkscape:window-x="-9"
     inkscape:window-y="-9"
     inkscape:window-maximized="1"
     inkscape:current-layer="layer1" />
  <defs
     id="defs2">
    <marker
       id="DistanceX"
       orient="auto"
       refX="0.0"
       refY="0.0"
       style="overflow:visible">
      <path
         d="M 3,-3 L -3,3 M 0,-5 L  0,5"
         style="stroke:#000000; stroke-width:0.5"
         id="path15" />
    </marker>
    <pattern
       id="Hatch"
       patternUnits="userSpaceOnUse"
       width="8"
       height="8"
       x="0"
       y="0">
      <path
         d="M8 4 l-4,4"
         stroke="#000000"
         stroke-width="0.25"
         linecap="square"
         id="path18" />
      <path
         d="M6 2 l-4,4"
         stroke="#000000"
         stroke-width="0.25"
         linecap="square"
         id="path20" />
      <path
         d="M4 0 l-4,4"
         stroke="#000000"
         stroke-width="0.25"
         linecap="square"
         id="path22" />
    </pattern>
    <symbol
       id="*Model_Space" />
    <symbol
       id="*Paper_Space" />
    <marker
       id="DistanceX-3"
       orient="auto"
       refX="0.0"
       refY="0.0"
       style="overflow:visible">
      <path
         d="M 3,-3 L -3,3 M 0,-5 L  0,5"
         style="stroke:#000000; stroke-width:0.5"
         id="path52" />
    </marker>
    <pattern
       id="Hatch-3"
       patternUnits="userSpaceOnUse"
       width="8"
       height="8"
       x="0"
       y="0">
      <path
         d="M8 4 l-4,4"
         stroke="#000000"
         stroke-width="0.25"
         linecap="square"
         id="path55" />
      <path
         d="M6 2 l-4,4"
         stroke="#000000"
         stroke-width="0.25"
         linecap="square"
         id="path57" />
      <path
         d="M4 0 l-4,4"
         stroke="#000000"
         stroke-width="0.25"
         linecap="square"
         id="path59" />
    </pattern>
    <symbol
       id="*Model_Space-4" />
    <symbol
       id="*Paper_Space-9" />
  </defs>
  <g
     inkscape:label="Layer 1"
     inkscape:groupmode="layer"
     id="layer1">
    <g
       inkscape:label="0"
       id="g33"
       transform="matrix(0.26458333,0,0,0.26458333,79.245937,-256.38305)"
       style="stroke-width:0.01;vector-effect:non-scaling-stroke;-inkscape-stroke:hairline;stroke-miterlimit:4;stroke-dasharray:none;stroke:#ff0000;stroke-opacity:1">
      <path
         d="M -20.787402,1009.1339 H -96.377953 V 997.79528 H -171.9685 v 11.33862 h -86.92914 v 45.3543 h 11.33859 v 45.3543 h -11.33859 v 45.3544 h 11.33859 v 45.3543 h -11.33859 v 56.6929 h 11.33859 v -11.3386 h 55.01312 v 11.3386 h 55.01312 v -11.3386 h 55.013125 v 11.3386 h 55.013123 v -11.3386 h 55.013124 v 11.3386 h 55.013123 v -11.3386 h 55.013125 v 11.3386 h 55.01312 v -11.3386 h 55.01312 v 11.3386 h 11.33859 v -56.6929 h -11.33859 v -45.3543 h 11.33859 v -45.3544 h -11.33859 v -45.3543 h 11.33859 v -56.69292 h -6.5201 a 15.11811,15.11811 0 0 0 -28.53461,0 H -20.787402 Z"
         style="fill:none;stroke:#ff0000;stroke-linecap:round;stroke-width:0.01;vector-effect:non-scaling-stroke;-inkscape-stroke:hairline;stroke-miterlimit:4;stroke-dasharray:none;stroke-opacity:1"
         id="path29" />
      <path
         d="m 246.61417,1002.7954 a 8.503937,8.503937 0 1 0 -17.00787,0 8.503937,8.503937 0 1 0 17.00787,0 z"
         style="fill:none;stroke:#ff0000;stroke-linecap:round;stroke-width:0.01;vector-effect:non-scaling-stroke;-inkscape-stroke:hairline;stroke-miterlimit:4;stroke-dasharray:none;stroke-opacity:1"
         id="path31" />
    </g>
    <g
       inkscape:label="0"
       id="g72"
       transform="matrix(0.26458333,0,0,0.26458333,78.901396,-179.54894)"
       style="stroke:#ff0000;stroke-opacity:1;stroke-width:0.01001575;stroke-miterlimit:4;stroke-dasharray:none;vector-effect:non-scaling-stroke;-inkscape-stroke:hairline">
      <path
         d="m -107.71653,1224.5669 v -20.7874 h 40.062987 v 20.7874 z"
         style="fill:none;stroke:#ff0000;stroke-linecap:round;stroke-opacity:1;stroke-width:0.01001575;stroke-miterlimit:4;stroke-dasharray:none;vector-effect:non-scaling-stroke;-inkscape-stroke:hairline"
         id="path66" />
      <path
         d="m 258.89764,1054.4882 v -56.69292 h -6.5201 a 15.11811,15.11811 0 0 0 -28.53461,0 H -20.787402 v 11.33862 H -96.377953 V 997.79528 H -171.9685 v 11.33862 h -86.92914 v 45.3543 h 11.33859 v 45.3543 h -11.33859 v 45.3544 h 11.33859 v 45.3543 h -11.33859 v 56.6929 h 11.33859 v -11.3386 h 55.01312 v 11.3386 h 55.01312 v -11.3386 h 55.013125 v 11.3386 h 55.013123 v -11.3386 h 55.013124 v 11.3386 h 55.013123 v -11.3386 h 55.013125 v 11.3386 h 55.01312 v -11.3386 h 55.01312 v 11.3386 h 11.33859 v -56.6929 h -11.33859 v -45.3543 h 11.33859 v -45.3544 h -11.33859 v -45.3543 z"
         style="fill:none;stroke:#ff0000;stroke-linecap:round;stroke-opacity:1;stroke-width:0.01001575;stroke-miterlimit:4;stroke-dasharray:none;vector-effect:non-scaling-stroke;-inkscape-stroke:hairline"
         id="path68" />
      <path
         d="m 246.61417,1002.7954 a 8.503937,8.503937 0 1 0 -17.00787,0 8.503937,8.503937 0 1 0 17.00787,0 z"
         style="fill:none;stroke:#ff0000;stroke-linecap:round;stroke-opacity:1;stroke-width:0.01001575;stroke-miterlimit:4;stroke-dasharray:none;vector-effect:non-scaling-stroke;-inkscape-stroke:hairline"
         id="path70" />
    </g>
  </g>
</svg>
